<?xml version="1.0" encoding="UTF-8"?>
<svg version="1.1" xmlns="http://www.w3.org/2000/svg" width="48" height="48">
<path d="M0 0 C3.13182716 1.57604571 5.08833696 3.41706283 7.54223633 5.91845703 C8.4284668 6.81435547 9.31469727 7.71025391 10.2277832 8.63330078 C11.13979492 9.57044922 12.05180664 10.50759766 12.99145508 11.47314453 C13.9315108 12.42826058 14.87225939 13.38269521 15.8137207 14.33642578 C18.10903575 16.66705337 20.39705154 19.00439649 22.67895508 21.34814453 C22.18395508 22.83314453 22.18395508 22.83314453 21.67895508 24.34814453 C16.42720582 19.96371927 11.54673035 15.3397236 6.74145508 10.47314453 C5.71568359 9.44060547 5.71568359 9.44060547 4.66918945 8.38720703 C3.00344044 6.70980942 1.34009288 5.03010662 -0.32104492 3.34814453 C-3.88868778 4.86190534 -6.15810779 6.95327582 -8.86791992 9.69970703 C-9.71225586 10.55048828 -10.5565918 11.40126953 -11.42651367 12.27783203 C-12.73555664 13.61201172 -12.73555664 13.61201172 -14.07104492 14.97314453 C-14.95920898 15.87033203 -15.84737305 16.76751953 -16.76245117 17.69189453 C-18.95321462 19.90621457 -21.13917256 22.12506888 -23.32104492 24.34814453 C-23.98104492 24.01814453 -24.64104492 23.68814453 -25.32104492 23.34814453 C-23.81324982 19.81135983 -21.75444314 17.5366404 -19.03979492 14.83642578 C-18.19803711 13.99660156 -17.3562793 13.15677734 -16.48901367 12.29150391 C-15.60858398 11.42332031 -14.7281543 10.55513672 -13.82104492 9.66064453 C-12.94061523 8.78085937 -12.06018555 7.90107422 -11.15307617 6.99462891 C-3.20387317 -0.89979398 -3.20387317 -0.89979398 0 0 Z " fill="#000000" transform="translate(25.321044921875,11.65185546875)"/>
</svg>
