<svg xmlns="http://www.w3.org/2000/svg" fill="none" viewBox="-0.5 -0.5 24 24" height="24" width="24" id="Note-Stack--Streamline-Rounded----Material-Symbols.svg">
  <path fill="#376bbe" d="M8.145785416666667 8.145929166666667V19.64592916666667H15.524952083333336V16.24384583333333C15.524952083333336 16.040200000000002 15.593904166666666 15.869472916666666 15.731712500000002 15.73161666666667C15.869425000000001 15.593952083333335 16.04005625 15.525095833333333 16.243702083333336 15.525095833333333H19.645785416666666V8.145929166666667H8.145785416666667ZM6.7082854166666674 19.64592916666667V8.145929166666667C6.7082854166666674 7.74568125 6.848058333333334 7.406047916666666 7.1275562500000005 7.12698125C7.407102083333333 6.8479625 7.746495833333333 6.708429166666667 8.145785416666667 6.708429166666667H19.645785416666666C20.04109791666667 6.708429166666667 20.37958125 6.849160416666667 20.661139583333334 7.130575C20.942602083333334 7.41218125 21.083285416666666 7.750616666666667 21.083285416666666 8.145929166666667V15.692804166666667C21.083285416666666 15.891514583333336 21.043370833333334 16.080929166666667 20.963493749999998 16.261095833333332C20.883664583333335 16.4412625 20.779829166666666 16.595266666666667 20.652035416666667 16.7230125L16.722868750000004 20.652179166666667C16.595122916666668 20.77997291666667 16.44111875 20.883808333333334 16.260952083333333 20.9636375C16.080785416666668 21.043514583333334 15.891370833333333 21.08342916666667 15.692660416666666 21.08342916666667H8.145785416666667C7.750472916666667 21.08342916666667 7.412133333333333 20.94265 7.130670833333333 20.66104375C6.8491124999999995 20.379629166666668 6.7082854166666674 20.041241666666668 6.7082854166666674 19.64592916666667ZM1.9405962500000002 5.630304166666667C1.8607383333333334 5.231014583333334 1.9366047916666669 4.875616666666667 2.1682004166666666 4.5641775C2.3998008333333334 4.252719166666667 2.7152506250000004 4.0570562500000005 3.1145545833333332 3.977198333333334L14.446827083333334 1.9646983333333337C14.830160416666667 1.884835625 15.18158125 1.9607020833333333 15.50099375 2.1923025000000003C15.820454166666666 2.423898125 16.02012291666667 2.7313650000000003 16.09995208333333 3.1146983333333336L16.339535416666667 4.432406666666667C16.371495833333334 4.6560145833333335 16.32755625 4.8396791666666665 16.207764583333333 4.983429166666667C16.08797291666667 5.127179166666667 15.940245833333332 5.215058333333333 15.764535416666668 5.246970833333334C15.588872916666666 5.27893125 15.417139583333334 5.2509958333333335 15.24943125 5.163116666666667C15.081722916666669 5.075285416666667 14.9819125 4.91955625 14.949952083333333 4.695948333333334L14.71036875 3.37824L3.3780962500000005 5.3667625L5.1509937500000005 15.5011375C5.182954166666667 15.676847916666668 5.1509937500000005 15.844556249999998 5.055160416666666 16.0042625C4.959327083333333 16.16401666666667 4.823579166666667 16.267804166666668 4.647887916666667 16.315720833333334C4.440250625 16.3636375 4.248583958333334 16.335702083333334 4.072887916666667 16.23186666666667C3.8971966666666664 16.128079166666666 3.7933756250000004 15.972349999999999 3.7614295833333333 15.764679166666667L1.9405962500000002 5.630304166666667Z" stroke-width="1"></path>
</svg>