<svg xmlns="http://www.w3.org/2000/svg" viewBox="-0.5 -0.5 16 16" id="Download-3-Line--Streamline-Mingcute.svg" height="16" width="16"><desc>Download 3 Line Streamline Icon: https://streamlinehq.com</desc><g fill="none" fill-rule="evenodd"><path d="M15 0v15H0V0h15ZM7.870625 14.536249999999999l-0.006874999999999999 0.00125 -0.044375 0.021875000000000002 -0.0125 0.0025 -0.00875 -0.0025 -0.044375 -0.021875000000000002c-0.00625 -0.0025 -0.011875 -0.000625 -0.015 0.003125l-0.0025 0.00625 -0.010625 0.2675 0.003125 0.0125 0.00625 0.008125 0.065 0.04625 0.009375 0.0025 0.0075 -0.0025 0.065 -0.04625 0.0075 -0.01 0.0025 -0.010625 -0.010625 -0.266875c-0.00125 -0.00625 -0.005625 -0.010625 -0.010625 -0.01125Zm0.16562500000000002 -0.07062500000000001 -0.008125 0.00125 -0.115625 0.058124999999999996 -0.00625 0.00625 -0.001875 0.006874999999999999 0.01125 0.26875 0.003125 0.0075 0.005 0.004375 0.12562500000000001 0.058124999999999996c0.0075 0.0025 0.014374999999999999 0 0.018125000000000002 -0.005l0.0025 -0.00875 -0.02125 -0.38375c-0.001875 -0.0075 -0.00625 -0.0125 -0.0125 -0.013749999999999998Zm-0.44687499999999997 0.00125a0.014374999999999999 0.014374999999999999 0 0 0 -0.016875 0.00375l-0.00375 0.00875 -0.02125 0.38375c0 0.0075 0.004375 0.0125 0.010625 0.015l0.009375 -0.00125 0.12562500000000001 -0.058124999999999996 0.00625 -0.005 0.0025 -0.006874999999999999 0.010625 -0.26875 -0.001875 -0.0075 -0.00625 -0.00625 -0.11499999999999999 -0.057499999999999996Z" stroke-width="1"></path><path fill="#5027c7" d="M7.1875 2.5a2.8137499999999998 2.8137499999999998 0 0 1 2.7150000000000003 2.0749999999999997c0.065 0.239375 0.263125 0.41875 0.5068750000000001 0.458125A2.5006250000000003 2.5006250000000003 0 0 1 11.25 9.66625a0.625 0.625 0 1 0 0.62625 1.08125 3.7512499999999998 3.7512499999999998 0 0 0 -0.884375 -6.865625A4.06375 4.06375 0 0 0 3.125 5.260625a3.125 3.125 0 0 0 0.0775 5.7625 0.625 0.625 0 0 0 0.46875 -1.15875 1.8756249999999999 1.8756249999999999 0 0 1 0.24625000000000002 -3.5575A0.63125 0.63125 0 0 0 4.391875 5.625C4.2125 3.9875 5.531875 2.5 7.1875 2.5Zm0.3125 4.375a0.625 0.625 0 0 1 0.625 0.625v4.115l0.808125 -0.8075a0.625 0.625 0 0 1 0.8837499999999999 0.885l-1.765 1.7618749999999999c-0.15812500000000002 0.1575 -0.3125 0.29562499999999997 -0.551875 0.29562499999999997 -0.24 0 -0.39375 -0.1375 -0.551875 -0.29562499999999997l-1.765 -1.7625a0.625 0.625 0 0 1 0.8837499999999999 -0.884375L6.875 11.615V7.5a0.625 0.625 0 0 1 0.625 -0.625Z" stroke-width="1"></path></g></svg>