<svg xmlns="http://www.w3.org/2000/svg" fill="none" viewBox="-0.75 -0.75 16 16" stroke="#22c55e" aria-hidden="true" id="User-Group--Streamline-Heroicons-Outline.svg" height="16" width="16"><desc>User Group Streamline Icon: https://streamlinehq.com</desc><path stroke-linecap="round" stroke-linejoin="round" d="M11.309395833333333 11.543510416666667C12.166587499999999 11.613533333333333 13.028914583333334 11.503152083333333 13.840793749999998 11.219375C13.967185416666664 9.661772916666665 12.359981249999999 8.551495833333332 10.9478625 9.220852083333332C10.852162499999999 9.266285416666667 10.7600875 9.319089583333332 10.672604166666666 9.378841666666666M11.308670833333332 11.542845833333333L11.309395833333333 11.563810416666666C11.309395833333333 11.716060416666666 11.301239583333333 11.866316666666664 11.284322916666666 12.014458333333332C10.056414583333332 12.718977083333332 8.664958333333333 13.08860625 7.249274999999999 13.086310416666667C5.7809083333333335 13.086310416666667 4.402502083333333 12.696562499999999 3.2142874999999997 12.014458333333332C3.1968875 11.857858333333333 3.188489583333333 11.700412499999999 3.189214583333333 11.542845833333333M11.309395833333333 11.542845833333333C11.3067375 10.775916666666665 11.085854166666666 10.025541666666667 10.672604166666666 9.379506249999999M10.672604166666666 9.379506249999999C9.927122916666667 8.210262499999999 8.63601875 7.502783333333333 7.249274999999999 7.503749999999999C5.862833333333334 7.503024999999999 4.572031249999999 8.21044375 3.826670833333333 9.379506249999999M3.826670833333333 9.379506249999999C2.5358083333333328 8.498752083333333 0.77556875 9.345733333333333 0.6582395833333332 10.904060416666667C0.6503249999999999 11.009245833333333 0.6506270833333333 11.11491458333333 0.6591458333333333 11.220039583333334C1.4704208333333333 11.505387499999998 2.332989583333333 11.61540625 3.189939583333333 11.542845833333333M3.82600625 9.379506249999999C3.4129979166666664 10.0256625 3.19235625 10.775977083333332 3.189939583333333 11.542845833333333M9.279335416666667 3.443689583333333C9.279335416666667 5.0064270833333335 7.587668749999999 5.983122916666667 6.234274999999999 5.2017541666666665C5.606183333333333 4.839133333333334 5.219275 4.16893125 5.219275 3.443689583333333C5.219275 1.8809520833333333 6.910941666666667 0.9042562499999999 8.264335416666666 1.685625C8.892427083333333 2.048245833333333 9.279335416666667 2.718447916666667 9.279335416666667 3.443689583333333ZM13.339395833333333 5.473689583333333C13.339395833333333 6.645772916666666 12.070645833333332 7.378264583333333 11.055585416666666 6.792283333333333C10.584516666666667 6.520287499999999 10.294335416666668 6.01768125 10.294335416666668 5.473689583333333C10.294335416666668 4.301666666666667 11.563145833333332 3.569175 12.578145833333332 4.15515625C13.049214583333333 4.4271520833333335 13.339395833333333 4.929758333333333 13.339395833333333 5.473689583333333ZM4.204275 5.473689583333333C4.204275 6.645772916666666 2.935464583333333 7.378264583333333 1.9204645833333334 6.792283333333333C1.4493958333333332 6.520287499999999 1.1592145833333334 6.01768125 1.1592145833333334 5.473689583333333C1.1592145833333334 4.301666666666667 2.427964583333333 3.569175 3.442964583333333 4.15515625C3.91409375 4.4271520833333335 4.204275 4.929758333333333 4.204275 5.473689583333333Z" stroke-width="1.5"></path></svg>