<svg xmlns="http://www.w3.org/2000/svg" fill="none" viewBox="-0.5 -0.5 24 24" height="24" width="24" id="Bubble--Streamline-Sharp----Material-Symbols.svg">
  <path fill="#3153d2" d="M11.5 2.875C12.697916666666668 2.875 13.81998125 3.0986127083333335 14.866145833333333 3.545833333333334C15.912310416666667 3.9930539583333338 16.826752083333336 4.607987708333333 17.609375 5.390625C18.391997916666668 6.173247916666667 19.006960416666665 7.087689583333334 19.45416666666667 8.133854166666667C19.901372916666666 9.18001875 20.125 10.302083333333334 20.125 11.5C20.125 12.697916666666668 19.901372916666666 13.81998125 19.45416666666667 14.866145833333333C19.006960416666665 15.912310416666667 18.391997916666668 16.826752083333336 17.609375 17.609375C16.826752083333336 18.391997916666668 15.912310416666667 19.006960416666665 14.866145833333333 19.45416666666667C13.81998125 19.901372916666666 12.697916666666668 20.125 11.5 20.125C10.717377083333334 20.125 9.93470625 20.041145833333335 9.152083333333334 19.8734375C8.369460416666668 19.705729166666668 7.682622916666667 19.39029375 7.091666666666668 18.927083333333336L8.121875 17.896875C8.505208333333334 18.16841875 9.012310416666667 18.368039583333335 9.643229166666668 18.495833333333334C10.274147916666667 18.623627083333336 10.893039583333334 18.6875 11.5 18.6875C13.52845625 18.6875 15.233522916666667 17.99668541666667 16.615104166666665 16.615104166666665C17.99668541666667 15.233522916666667 18.6875 13.52845625 18.6875 11.5C18.6875 9.47154375 17.99668541666667 7.766477083333334 16.615104166666665 6.384895833333333C15.233522916666667 5.003314583333334 13.52845625 4.3125 11.5 4.3125C9.47154375 4.3125 7.766477083333334 5.003314583333334 6.384895833333333 6.384895833333333C5.003314583333334 7.766477083333334 4.3125 9.47154375 4.3125 11.5C4.3125 12.122916666666667 4.372395833333334 12.70189375 4.4921875 13.236979166666668C4.611979166666667 13.772064583333334 4.79966875 14.31908125 5.055208333333334 14.878125L3.9770833333333337 15.956249999999999C3.6576372916666666 15.445122916666667 3.3940956250000003 14.798247916666666 3.186458333333334 14.015625C2.9788210416666665 13.233002083333334 2.875 12.394460416666668 2.875 11.5C2.875 10.302083333333334 3.0986127083333335 9.18001875 3.545833333333334 8.133854166666667C3.9930539583333338 7.087689583333334 4.607987708333333 6.173247916666667 5.390625 5.390625C6.173247916666667 4.607987708333333 7.087689583333334 3.9930539583333338 8.133854166666667 3.545833333333334C9.18001875 3.0986127083333335 10.302083333333334 2.875 11.5 2.875ZM12.817708333333334 15.309375000000001V11.2125L3.905208333333334 20.125L2.875 19.09479166666667L11.787500000000001 10.182291666666668H7.690625000000001V8.744791666666668H14.255208333333334V15.309375000000001H12.817708333333334Z" stroke-width="1"></path>
</svg>