<svg xmlns="http://www.w3.org/2000/svg" viewBox="-0.5 -0.5 16 16" id="User-4-Fill--Streamline-Mingcute-Fill.svg" height="16" width="16"><desc>User 4 Fill Streamline Icon: https://streamlinehq.com</desc><g fill="none" fill-rule="evenodd"><path d="M15 0v15H0V0h15ZM7.87125 14.536249999999999l-0.0075 0.00125 -0.044375 0.021875000000000002 -0.0125 0.0025 -0.00875 -0.0025 -0.044375 -0.0225c-0.00625 -0.001875 -0.011875 0 -0.015 0.00375l-0.0025 0.00625 -0.010625 0.2675 0.003125 0.0125 0.00625 0.008125 0.065 0.04625 0.009375 0.0025 0.0075 -0.0025 0.065 -0.04625 0.0075 -0.01 0.0025 -0.010625 -0.010625 -0.266875c-0.00125 -0.00625 -0.005625 -0.010625 -0.01 -0.01125Zm0.165 -0.07062500000000001 -0.00875 0.00125 -0.11499999999999999 0.058124999999999996 -0.00625 0.00625 -0.001875 0.006874999999999999 0.01125 0.26875 0.003125 0.0075 0.005 0.005 0.12562500000000001 0.057499999999999996c0.0075 0.0025 0.014374999999999999 0 0.018125000000000002 -0.005l0.0025 -0.00875 -0.02125 -0.38375c-0.001875 -0.0075 -0.00625 -0.0125 -0.0125 -0.013749999999999998Zm-0.44687499999999997 0.00125a0.014374999999999999 0.014374999999999999 0 0 0 -0.016875 0.00375l-0.00375 0.00875 -0.02125 0.38375c0 0.0075 0.004375 0.0125 0.010625 0.015l0.009375 -0.00125 0.12562500000000001 -0.058124999999999996 0.00625 -0.005 0.001875 -0.006874999999999999 0.01125 -0.26875 -0.001875 -0.0075 -0.00625 -0.00625 -0.11499999999999999 -0.057499999999999996Z" stroke-width="1"></path><path fill="#625b62" d="M7.5 1.25C4.048125000000001 1.25 1.25 4.048125000000001 1.25 7.5s2.798125 6.25 6.25 6.25 6.25 -2.798125 6.25 -6.25S10.951875 1.25 7.5 1.25ZM5.3125 5.9375a2.1875 2.1875 0 1 1 4.375 0 2.1875 2.1875 0 0 1 -4.375 0Zm6.098749999999999 4.6775A4.9906250000000005 4.9906250000000005 0 0 1 7.5 12.5a4.9906250000000005 4.9906250000000005 0 0 1 -3.91125 -1.885C4.601875000000001 9.888125 5.984375 9.375 7.5 9.375s2.898125 0.5131249999999999 3.91125 1.24Z" stroke-width="1"></path></g></svg>